<svg width="550" height="400" viewBox="0 0 550 400" fill="none" xmlns="http://www.w3.org/2000/svg">
<path d="M199.278 200C199.278 158.18 233.18 124.278 275 124.278C316.819 124.278 350.721 158.18 350.721 200C350.721 241.819 316.819 275.721 275 275.721C233.18 275.721 199.278 241.819 199.278 200ZM342.805 200L275 132.194L207.194 200L275 267.805L342.805 200ZM272.881 140.305V203.178H277.119V140.305L336.813 200L275 261.813L213.186 200L272.881 140.305Z" fill="#101820"/>
<path d="M165.234 167.87L162.969 175.827L163.674 176.028C163.867 175.351 164.072 174.952 164.233 174.814C164.394 174.677 164.58 174.669 164.805 174.733L181.737 179.553C181.962 179.618 182.108 179.75 182.164 179.98C182.213 180.238 182.201 180.601 182.073 181.052C182.073 181.052 182.065 181.08 182.057 181.109L182.762 181.309L184.369 175.666L183.663 175.465C183.45 176.106 183.281 176.485 183.148 176.63C182.987 176.767 182.794 176.804 182.54 176.731L174.78 174.522L175.72 171.221L175.736 171.164C175.953 170.402 176.049 169.637 176.072 168.911C176.064 168.299 176.039 167.742 175.942 167.227C175.836 166.739 175.715 166.308 175.558 165.897C174.867 164.358 173.802 163.384 172.335 162.966C170.867 162.548 169.457 162.788 168.08 163.768C166.682 164.713 165.74 166.092 165.234 167.87ZM165.609 171.911L166.645 168.271C166.926 167.284 167.498 166.562 168.489 166.081C169.46 165.564 170.487 165.491 171.588 165.804C172.66 166.109 173.438 166.697 173.999 167.619C174.54 168.505 174.694 169.464 174.405 170.48L173.369 174.121L165.609 171.911Z" fill="#101820"/>
<path d="M176.555 141.907L172.343 149.029L172.974 149.402C173.333 148.796 173.632 148.462 173.823 148.37C174.014 148.278 174.195 148.317 174.397 148.437L189.549 157.399C189.751 157.519 189.858 157.684 189.854 157.921C189.835 158.183 189.732 158.53 189.493 158.934C189.493 158.934 189.478 158.96 189.463 158.985L190.094 159.358L193.082 154.308L192.451 153.934C192.082 154.5 191.822 154.824 191.657 154.931C191.466 155.022 191.27 155.009 191.043 154.874L184.098 150.766L185.159 148.973L185.818 148.954L194.275 148.775C194.567 148.743 194.799 148.812 194.95 148.902C195.001 148.932 195.076 148.977 195.097 149.057C195.153 149.193 195.124 149.414 194.945 149.717L195.576 150.091L198.564 145.04L197.933 144.667C197.664 145.121 197.394 145.405 197.133 145.557C196.887 145.685 196.435 145.758 195.761 145.802L186.67 146.015C186.719 145.874 186.754 145.758 186.773 145.667C186.92 145.073 187.038 144.529 187.075 144.005C187.097 143.507 187.089 143.059 187.041 142.621C186.764 140.958 185.981 139.745 184.668 138.968C183.355 138.191 181.93 138.064 180.349 138.663C178.757 139.221 177.496 140.316 176.555 141.907ZM175.891 145.912L177.818 142.654C178.341 141.77 179.077 141.217 180.157 141.004C181.227 140.751 182.24 140.941 183.225 141.523C184.185 142.091 184.788 142.857 185.096 143.892C185.395 144.886 185.3 145.853 184.762 146.762L182.835 150.019L175.891 145.912Z" fill="#101820"/>
<path d="M200.243 115.428C198.473 115.835 196.944 116.702 195.616 117.987C194.309 119.252 193.392 120.752 192.906 122.529C192.421 124.264 192.414 125.986 192.841 127.777C193.29 129.548 194.136 131.097 195.442 132.447C196.727 133.775 198.227 134.692 199.982 135.197C201.759 135.683 203.501 135.711 205.272 135.305C207.043 134.856 208.592 134.01 209.899 132.745C211.227 131.46 212.123 129.939 212.608 128.204C213.094 126.427 213.122 124.726 212.673 122.955C212.246 121.164 211.358 119.614 210.073 118.286C208.767 116.936 207.309 116.02 205.532 115.535C203.777 115.029 202.014 114.979 200.243 115.428ZM194.742 124.468C194.571 122.224 195.202 120.429 196.636 119.041C198.07 117.654 199.884 117.082 202.1 117.346C204.295 117.59 206.25 118.597 207.944 120.347C209.617 122.075 210.56 124.062 210.751 126.285C210.923 128.488 210.312 130.303 208.879 131.691C207.445 133.078 205.631 133.609 203.415 133.386C201.199 133.122 199.223 132.135 197.55 130.406C195.856 128.656 194.914 126.67 194.742 124.468Z" fill="#101820"/>
<path d="M214.131 102.897L214.473 103.545C214.966 103.286 215.331 103.16 215.567 103.168C215.83 103.162 216.016 103.263 216.139 103.497L224.348 119.069C224.458 119.277 224.475 119.499 224.349 119.699C224.248 119.885 223.912 120.128 223.367 120.416L223.709 121.065L229.938 117.781C231.599 116.905 232.859 115.71 233.811 114.18C234.774 112.611 235.277 110.986 235.343 109.16C235.435 107.321 235.017 105.584 234.155 103.949C233.279 102.288 232.136 101 230.566 100.036C229.023 99.059 227.371 98.504 225.545 98.4383C223.731 98.3329 222.021 98.7372 220.386 99.5992L214.131 102.897ZM218.734 102.128L221.07 100.897C222.835 99.9665 224.737 99.9256 226.79 100.8C228.829 101.649 230.424 103.163 231.559 105.317C232.681 107.445 233.03 109.617 232.591 111.805C232.139 113.967 231.044 115.539 229.279 116.469L226.944 117.701L218.734 102.128Z" fill="#101820"/>
<path d="M253.942 87.6544L254.097 88.3715C255.072 88.1618 255.693 88.1183 255.965 88.2698C256.232 88.3926 256.408 88.6547 256.495 89.0563L259.073 101.046C259.097 101.161 259.122 101.276 259.13 101.454C259.369 102.843 259.253 103.979 258.799 104.797C258.289 105.776 257.148 106.472 255.399 106.848C255.37 106.854 255.312 106.867 255.255 106.879C254.423 107.058 253.618 107.081 252.769 106.903C251.95 106.719 251.306 106.378 250.845 105.907C250.283 105.247 249.868 104.436 249.589 103.416C249.576 103.358 249.57 103.33 249.558 103.272L246.943 91.1102C246.832 90.5938 246.85 90.2598 246.997 90.1081C247.11 89.9338 247.499 89.7901 248.13 89.6544L247.976 88.9373L246.542 89.2457L243.673 89.8624L242.239 90.1708L242.393 90.8879C243.082 90.7399 243.496 90.7109 243.676 90.8522C243.85 90.9648 243.97 91.2393 244.068 91.6982L246.683 103.86C246.689 103.889 246.702 103.946 246.72 104.032C247.068 105.368 247.814 106.468 248.96 107.332C249.739 107.885 250.746 108.239 251.986 108.422C253.219 108.577 254.445 108.554 255.592 108.307C257.772 107.838 259.249 106.891 260.051 105.458C260.753 104.256 260.922 102.809 260.593 101.14C260.581 101.082 260.55 100.939 260.507 100.738L257.923 88.7193C257.824 88.2603 257.906 87.9426 258.133 87.7437C258.309 87.5858 258.864 87.3764 259.834 87.138L259.679 86.4209L257.528 86.8835L256.094 87.1918L253.942 87.6544Z" fill="#101820"/>
<path d="M282.538 85.9976C280.722 85.8964 278.998 86.2412 277.364 87.0905C275.761 87.9121 274.491 89.0755 273.466 90.6052C272.47 92.1365 271.906 93.8095 271.802 95.6843C271.699 97.5299 272.044 99.2534 272.864 100.886C273.713 102.52 274.875 103.819 276.375 104.843C277.907 105.839 279.58 106.403 281.396 106.504C282.948 106.59 284.499 106.177 286.047 105.294C287.445 104.461 288.593 103.378 289.519 102.049L288.906 101.456C288.015 102.67 286.935 103.609 285.663 104.273C284.514 104.856 283.382 105.145 282.21 105.08C280.013 104.957 278.216 103.976 276.729 102.189C275.273 100.374 274.597 98.2497 274.731 95.8475C274.867 93.4161 275.744 91.3786 277.392 89.766C279.07 88.1258 280.992 87.3807 283.189 87.5031C284.83 87.5945 286.296 88.1758 287.585 89.3055C288.034 89.6831 288.364 90.0835 288.519 90.4741C288.702 90.8664 288.813 91.519 288.88 92.4337L289.614 92.4452L289.54 86.3877L288.807 86.3469L288.843 87.2892C288.853 87.6424 288.695 87.8393 288.399 87.8815C288.399 87.8815 288.34 87.8783 288.281 87.875C288.047 87.8619 287.673 87.7236 287.215 87.4924C285.796 86.5905 284.237 86.0923 282.538 85.9976Z" fill="#101820"/>
<path d="M303.77 89.0508L302.644 92.4179L303.34 92.6504C303.656 91.7042 303.944 91.2127 304.176 91.0737C304.445 90.9162 304.863 90.9629 305.419 91.1489L305.447 91.1582L309.371 92.4694C309.362 92.59 309.315 92.7291 309.259 92.8961L303.894 108.952C303.782 109.286 303.615 109.509 303.374 109.583C303.169 109.638 302.78 109.601 302.195 109.406L301.963 110.101L303.354 110.566L306.137 111.496L307.528 111.961L307.761 111.266C307.121 111.052 306.778 110.875 306.648 110.708C306.546 110.55 306.546 110.272 306.676 109.882L312.033 93.8538C312.098 93.6591 312.172 93.5292 312.209 93.4179L316.077 94.7105L316.105 94.7198C316.717 94.9244 317.098 95.1752 317.19 95.4536C317.292 95.7042 317.189 96.2886 316.892 97.1791L317.588 97.4116L318.713 94.0445L303.77 89.0508Z" fill="#101820"/>
<path d="M354.954 118.538L351.199 120.124L343.586 123.319L342.121 123.94L340.657 124.562L339.192 125.183L336.613 126.276C336.056 126.512 335.559 126.56 335.142 126.442C334.726 126.323 334.181 125.957 333.551 125.343L333.039 125.868L337.244 129.961L337.756 129.436C337.756 129.436 337.735 129.415 337.714 129.395C337.104 128.801 336.849 128.348 336.907 128.036C336.927 127.974 336.967 127.89 337.049 127.806C337.172 127.68 337.419 127.552 337.749 127.382L340.327 126.288L346.446 132.243L345.444 134.871C345.325 135.246 345.162 135.498 345.019 135.645C344.978 135.687 344.916 135.75 344.854 135.771C344.628 135.878 344.294 135.758 343.895 135.411L343.384 135.937L347.589 140.029L348.1 139.504C347.637 138.97 347.423 138.517 347.438 138.081C347.456 137.936 347.555 137.581 347.715 137.081L348.738 134.474L349.319 132.993L349.901 131.512L350.483 130.031L354.212 120.436L354.954 118.538ZM350.437 122.043L348.191 127.8L347.609 129.281L347.027 130.762L341.792 125.667L343.257 125.045L344.743 124.444L350.437 122.043Z" fill="#101820"/>
<path d="M374.369 143.357L370.22 136.198L369.585 136.566C369.938 137.175 370.083 137.6 370.07 137.811C370.056 138.023 369.934 138.162 369.73 138.279L354.5 147.107C354.297 147.225 354.1 147.237 353.896 147.118C353.677 146.974 353.424 146.713 353.188 146.307C353.188 146.307 353.174 146.282 353.159 146.256L352.524 146.624L355.467 151.701L356.102 151.333C355.789 150.735 355.633 150.35 355.621 150.153C355.634 149.942 355.743 149.778 355.971 149.645L362.952 145.599L364.673 148.569L364.703 148.62C365.1 149.305 365.584 149.907 366.089 150.427C366.536 150.847 366.953 151.216 367.392 151.504C367.815 151.767 368.21 151.979 368.615 152.152C370.201 152.724 371.642 152.635 372.962 151.87C374.282 151.105 375.09 149.925 375.341 148.253C375.633 146.591 375.296 144.956 374.369 143.357ZM371.202 140.818L373.1 144.092C373.615 144.981 373.737 145.893 373.394 146.94C373.091 147.997 372.43 148.787 371.44 149.361C370.475 149.92 369.512 150.072 368.458 149.834C367.445 149.608 366.649 149.052 366.119 148.138L364.221 144.864L371.202 140.818Z" fill="#101820"/>
<path d="M385.213 169.433L382.947 161.476L382.242 161.676C382.435 162.354 382.47 162.801 382.406 163.002C382.341 163.204 382.188 163.309 381.962 163.373L365.031 168.193C364.805 168.257 364.612 168.221 364.443 168.055C364.266 167.862 364.084 167.547 363.956 167.096C363.956 167.096 363.948 167.067 363.94 167.039L363.234 167.24L364.841 172.884L365.547 172.683C365.39 172.026 365.334 171.615 365.37 171.421C365.435 171.22 365.58 171.087 365.834 171.015L373.594 168.806L374.534 172.107L374.55 172.164C374.767 172.925 375.089 173.627 375.451 174.256C375.781 174.772 376.095 175.232 376.449 175.619C376.796 175.978 377.126 176.281 377.476 176.547C378.874 177.492 380.292 177.759 381.759 177.341C383.227 176.923 384.3 175.977 384.954 174.418C385.645 172.879 385.719 171.211 385.213 169.433ZM382.765 166.195L383.802 169.835C384.083 170.823 383.977 171.737 383.388 172.668C382.835 173.618 382 174.222 380.9 174.535C379.827 174.841 378.856 174.751 377.893 174.262C376.967 173.794 376.331 173.06 376.042 172.044L375.005 168.404L382.765 166.195Z" fill="#101820"/>
<path fill-rule="evenodd" clip-rule="evenodd" d="M275 71C257.514 71 240.774 74.3825 224.78 81.1475C209.343 87.6766 195.678 96.8885 183.783 108.783C171.888 120.678 162.676 134.343 156.147 149.78C149.382 165.774 146 182.514 146 200C146 217.485 149.383 234.225 156.148 250.22C162.677 265.656 171.888 279.322 183.783 291.216C195.678 303.111 209.343 312.323 224.78 318.852C240.774 325.617 257.514 329 275 329C292.485 329 309.225 325.617 325.22 318.852C340.656 312.323 354.322 303.111 366.216 291.216C378.111 279.322 387.323 265.656 393.852 250.22C400.617 234.225 404 217.485 404 200C404 182.514 400.617 165.774 393.851 149.78C387.323 134.343 378.111 120.678 366.217 108.783C354.322 96.8883 340.656 87.6764 325.22 81.1475C309.226 74.3825 292.486 71 275 71ZM216.799 141.799C201.033 157.566 193 176.536 192.701 198.71H148.586C148.749 182.039 152.061 166.064 158.524 150.785C164.922 135.657 173.95 122.265 185.607 110.607C197.265 98.9499 210.657 89.922 225.785 83.5237C241.458 76.8945 257.863 73.5799 275 73.5799C292.137 73.5799 308.542 76.8945 324.216 83.5237C339.343 89.9222 352.735 98.9501 364.392 110.607C376.05 122.265 385.078 135.658 391.476 150.785C397.939 166.064 401.251 182.039 401.414 198.71H357.299C357 176.536 348.968 157.566 333.201 141.799C317.129 125.728 297.729 117.692 275 117.692C252.271 117.692 232.871 125.728 216.799 141.799ZM275 120.272C297.016 120.272 315.808 128.056 331.375 143.624C346.943 159.191 354.727 177.983 354.727 200C354.727 222.016 346.944 240.808 331.376 256.376C315.808 271.944 297.016 279.727 275 279.727C252.984 279.727 234.191 271.944 218.624 256.376C203.056 240.808 195.272 222.016 195.272 200.001C195.272 177.984 203.056 159.191 218.624 143.624C234.191 128.056 252.984 120.272 275 120.272ZM184.987 226.506L182.722 218.549L182.016 218.75C182.209 219.427 182.245 219.874 182.18 220.076C182.116 220.277 181.962 220.382 181.737 220.446L164.805 225.266C164.58 225.331 164.386 225.294 164.217 225.128C164.04 224.935 163.859 224.62 163.73 224.169L163.714 224.112L163.009 224.313L164.616 229.957L165.321 229.756C165.164 229.099 165.108 228.688 165.145 228.495C165.21 228.293 165.355 228.16 165.609 228.087L173.369 225.879L174.309 229.18L174.325 229.237C174.542 229.998 174.863 230.7 175.226 231.329C175.556 231.846 175.87 232.305 176.224 232.692C176.57 233.051 176.9 233.354 177.251 233.62C178.648 234.565 180.067 234.832 181.534 234.414C183.001 233.997 184.074 233.05 184.729 231.492C185.419 229.953 185.493 228.284 184.987 226.506ZM365.46 224.943L363.194 232.901L363.9 233.101C364.093 232.424 364.298 232.025 364.46 231.887C364.62 231.751 364.805 231.742 365.031 231.807L381.962 236.627C382.188 236.691 382.334 236.824 382.391 237.053C382.438 237.311 382.427 237.674 382.299 238.125L382.282 238.182L382.987 238.382L384.594 232.739L383.889 232.538C383.676 233.18 383.507 233.558 383.374 233.704C383.214 233.84 383.02 233.877 382.766 233.804L375.006 231.595L375.945 228.294L375.961 228.238C376.178 227.476 376.275 226.709 376.298 225.984C376.289 225.371 376.265 224.815 376.167 224.3C376.062 223.812 375.941 223.382 375.783 222.97C375.092 221.432 374.028 220.457 372.561 220.039C371.093 219.622 369.682 219.861 368.305 220.841C366.908 221.786 365.966 223.166 365.46 224.943ZM365.834 228.985L366.871 225.344C367.152 224.357 367.724 223.635 368.715 223.155C369.685 222.637 370.713 222.564 371.813 222.878C372.885 223.182 373.665 223.77 374.226 224.693C374.767 225.579 374.92 226.538 374.631 227.553L373.595 231.194L365.834 228.985ZM182.54 223.268L183.576 226.908C183.857 227.896 183.752 228.811 183.163 229.741C182.609 230.692 181.775 231.296 180.674 231.608C179.602 231.913 178.631 231.824 177.668 231.335C176.741 230.867 176.105 230.133 175.816 229.118L174.78 225.477L182.54 223.268ZM194.232 247.635L190.02 240.515L189.388 240.888C189.747 241.494 189.895 241.917 189.884 242.129C189.872 242.34 189.751 242.48 189.549 242.6L174.397 251.562C174.195 251.682 173.999 251.695 173.793 251.579C173.573 251.436 173.318 251.178 173.079 250.774L173.049 250.723L172.417 251.097L175.405 256.147L176.036 255.774C175.718 255.179 175.559 254.795 175.545 254.599C175.557 254.388 175.664 254.222 175.891 254.088L182.835 249.98L183.896 251.773L183.595 252.36L179.679 259.857C179.566 260.128 179.394 260.299 179.243 260.389C179.192 260.418 179.117 260.463 179.036 260.442C178.89 260.426 178.71 260.295 178.531 259.991L177.899 260.365L180.887 265.415L181.518 265.042C181.249 264.587 181.131 264.214 181.123 263.913C181.13 263.636 181.283 263.204 181.569 262.591L185.761 254.522C185.86 254.633 185.945 254.719 186.016 254.78C186.466 255.196 186.886 255.56 187.327 255.845C187.753 256.104 188.15 256.312 188.556 256.482C190.148 257.04 191.587 256.938 192.901 256.161C194.214 255.385 195.011 254.197 195.248 252.523C195.525 250.86 195.173 249.227 194.232 247.635ZM352.451 253.503L356.6 246.344C357.527 244.745 358.778 243.639 360.365 243.066C361.941 242.454 363.367 242.568 364.687 243.333C366.007 244.098 366.8 245.304 367.092 246.965C367.144 247.402 367.156 247.85 367.138 248.349C367.106 248.872 366.993 249.418 366.851 250.014C366.65 250.711 366.369 251.429 365.972 252.115L365.943 252.166L364.221 255.136L371.202 259.182C371.431 259.314 371.627 259.326 371.816 259.233C371.981 259.125 372.238 258.799 372.602 258.229L373.236 258.598L370.294 263.674L369.659 263.307L369.688 263.256C369.924 262.849 370.024 262.501 370.041 262.239C370.042 262.003 369.933 261.838 369.731 261.721L354.5 252.893C354.297 252.776 354.116 252.738 353.925 252.831C353.736 252.925 353.439 253.261 353.085 253.871L352.451 253.503ZM191.042 245.125L192.969 248.383C193.492 249.266 193.622 250.178 193.289 251.228C192.995 252.287 192.341 253.083 191.356 253.666C190.397 254.234 189.435 254.394 188.379 254.165C187.364 253.948 186.563 253.399 186.025 252.491L184.098 249.233L191.042 245.125ZM357.869 247.079L355.972 250.354L362.952 254.401L364.85 251.126C365.379 250.212 365.466 249.245 365.159 248.252C364.841 247.221 364.23 246.46 363.266 245.901C362.277 245.327 361.262 245.147 360.194 245.409C359.115 245.632 358.384 246.192 357.869 247.079ZM209.899 267.254C211.227 268.54 212.144 270.04 212.608 271.796C213.114 273.551 213.122 275.315 212.674 277.086C212.247 278.877 211.379 280.365 210.073 281.714C208.788 283.042 207.267 283.98 205.491 284.465C203.736 284.971 202.035 284.999 200.243 284.572C198.493 284.144 196.944 283.298 195.616 282.012C194.309 280.748 193.412 279.226 192.906 277.471C192.442 275.715 192.413 273.973 192.841 272.181C193.289 270.41 194.156 268.881 195.442 267.553C196.748 266.204 198.268 265.307 200.024 264.801C201.8 264.316 203.522 264.267 205.272 264.695C207.063 265.122 208.592 265.99 209.899 267.254ZM208.879 268.308C207.445 266.921 205.631 266.349 203.394 266.593C201.198 266.837 199.244 267.844 197.55 269.594C195.877 271.322 194.955 273.329 194.763 275.553C194.613 277.776 195.202 279.571 196.636 280.958C198.07 282.346 199.905 282.897 202.1 282.654C204.316 282.389 206.271 281.382 207.944 279.653C209.637 277.903 210.58 275.916 210.752 273.714C210.944 271.491 210.312 269.696 208.879 268.308ZM340.629 266.743L342.113 270.539L345.101 278.236L346.845 282.679L347.869 285.287C348.089 285.85 348.124 286.348 347.993 286.761C347.864 287.175 347.483 287.709 346.852 288.323L347.363 288.849L351.569 284.756L351.057 284.23L351.015 284.271C350.405 284.864 349.945 285.108 349.635 285.041C349.573 285.019 349.491 284.977 349.409 284.892C349.286 284.767 349.165 284.516 349.003 284.182L347.98 281.575L354.099 275.619L356.699 276.691C357.071 276.821 357.317 276.99 357.46 277.138C357.501 277.18 357.563 277.242 357.583 277.305C357.683 277.535 357.554 277.865 357.196 278.255L357.708 278.78L361.913 274.688L361.402 274.162C360.856 274.611 360.396 274.812 359.961 274.786C359.817 274.763 359.465 274.654 358.97 274.482L356.391 273.389L354.926 272.767L353.461 272.145L351.996 271.525L342.506 267.536L340.629 266.743ZM344.011 271.354L349.705 273.754L352.634 274.998L347.399 280.093L346.817 278.612L346.257 277.111L344.011 271.354ZM223.708 278.934L223.366 279.584C223.859 279.844 224.17 280.073 224.296 280.273C224.449 280.487 224.471 280.697 224.348 280.93L216.138 296.503C216.029 296.71 215.855 296.851 215.619 296.859C215.408 296.881 215.018 296.741 214.473 296.454L214.131 297.102L220.36 300.386C222.021 301.262 223.719 301.627 225.519 301.547C227.358 301.455 228.983 300.952 230.527 299.975C232.096 299.011 233.293 297.685 234.155 296.05C235.03 294.389 235.447 292.719 235.355 290.879C235.289 289.053 234.814 287.376 233.836 285.833C232.899 284.277 231.598 283.094 229.963 282.232L223.708 278.934ZM226.943 282.299L229.279 283.53C231.044 284.46 232.153 286.006 232.591 288.194C233.043 290.356 232.695 292.528 231.559 294.682C230.437 296.81 228.843 298.325 226.79 299.199C224.75 300.048 222.835 300.033 221.07 299.102L218.734 297.871L226.943 282.299ZM298.386 294.837L297.261 291.469L312.204 286.475L313.329 289.843L312.633 290.075C312.335 289.185 312.066 288.656 311.834 288.517C311.593 288.351 311.138 288.379 310.526 288.583L310.498 288.593L306.63 289.885C306.667 289.997 306.686 290.145 306.751 290.339L312.107 306.368C312.238 306.758 312.405 306.98 312.581 307.045C312.786 307.101 313.165 307.035 313.806 306.822L314.038 307.517L312.647 307.981L309.864 308.912L308.473 309.377L308.24 308.681C308.824 308.486 309.158 308.281 309.289 308.114C309.436 307.91 309.436 307.632 309.324 307.298L303.959 291.242C303.903 291.075 303.857 290.935 303.792 290.833L299.868 292.145L299.84 292.154C299.283 292.34 298.922 292.553 298.801 292.841C298.7 293.092 298.765 293.658 299.081 294.604L298.386 294.837ZM258.106 292.984L258.26 292.266L260.411 292.728L261.846 293.037L263.997 293.5L263.843 294.217C262.861 294.036 262.269 293.999 262.044 294.071C261.755 294.158 261.549 294.414 261.451 294.873L258.867 306.891L258.78 307.293C258.394 308.951 257.645 310.2 256.511 311.007C255.191 311.984 253.455 312.241 251.275 311.771C250.128 311.525 249.001 311.042 247.94 310.394C246.885 309.717 246.113 308.981 245.63 308.157C244.94 306.898 244.712 305.589 244.944 304.228L244.981 304.056L247.596 291.894C247.695 291.435 247.699 291.136 247.587 290.962C247.48 290.759 247.091 290.615 246.403 290.467L246.557 289.749L247.991 290.058L250.859 290.675L252.294 290.983L252.139 291.7C251.508 291.565 251.095 291.536 250.92 291.648C250.723 291.726 250.57 292.023 250.459 292.539L247.843 304.701L247.813 304.845C247.648 305.89 247.692 306.8 247.934 307.632C248.161 308.251 248.607 308.827 249.279 309.331C249.979 309.843 250.723 310.152 251.555 310.332L251.698 310.362C253.448 310.738 254.774 310.573 255.641 309.889C256.391 309.33 256.964 308.343 257.317 306.979C257.383 306.813 257.408 306.698 257.432 306.583L260.01 294.594C260.097 294.192 260.044 293.88 259.851 293.659C259.665 293.409 259.081 293.193 258.106 292.984ZM281.396 293.496C279.58 293.597 277.905 294.131 276.376 295.157C274.874 296.151 273.741 297.448 272.892 299.083C272.072 300.715 271.698 302.441 271.802 304.315C271.905 306.161 272.439 307.835 273.435 309.366C274.461 310.897 275.76 312.058 277.365 312.909C278.997 313.729 280.722 314.103 282.539 314.002C284.091 313.916 285.587 313.333 287.027 312.283C288.324 311.299 289.344 310.097 290.117 308.672L289.441 308.152C288.691 309.457 287.722 310.51 286.532 311.311C285.455 312.017 284.361 312.431 283.189 312.497C280.992 312.618 279.098 311.843 277.421 310.232C275.772 308.59 274.865 306.554 274.732 304.152C274.596 301.72 275.242 299.598 276.7 297.813C278.186 295.996 280.013 295.042 282.21 294.919C283.851 294.829 285.372 295.243 286.779 296.223C287.267 296.548 287.64 296.909 287.837 297.281C288.063 297.649 288.245 298.286 288.413 299.188L289.144 299.117L288.398 293.106L287.665 293.147L287.805 294.079C287.854 294.429 287.719 294.642 287.429 294.717L287.312 294.723C287.078 294.737 286.691 294.64 286.21 294.462C284.7 293.723 283.095 293.401 281.396 293.496Z" fill="#101820"/>
</svg>
